<svg id="Layer_1" data-name="Layer 1" xmlns="http://www.w3.org/2000/svg" viewBox="0 0 368.5 167.5"><defs><style>.cls-1{fill:#fff;}</style></defs><path class="cls-1" d="M200.7-557l-.1,25.8H368.1V-557H200.7m0,139.9-.1,25.8H368.1v-25.8H200.7m0-93.2-.1,25.7H368.1v-25.7H200.7m0,46.6-.1,25.7H368.1v-25.7H200.7M0-520.25v128.9H25.7v-84.9H47.1v84.9H72.3v-84.9H93.2v84.9H119v-84.9h20.9v84.9h26.4v-128.9l-83.1-38.7L0-520.25M200.7,2l-.1,25.8H368.1V2H200.7m0,139.9-.1,25.8H368.1v-25.8H200.7m0-93.2-.1,25.7H368.1V48.65H200.7m0,46.6-.1,25.7H368.1V95.25H200.7M0,38.75v128.9H25.7V82.75H47.1v84.9H72.3V82.75H93.2v84.9H119V82.75h20.9v84.9h26.4V38.75L83.2.05,0,38.75m8.2-393.7H0v-5.5H22.4v5.5H14.2v21.5h-6Zm21.4-5.4h5.9v10.7h11v-10.7h5.9v27H46.5v-10.8h-11v10.8H29.6Zm32,0H82v5.3H67.5v5.5H80.2v5.3H67.5v5.7H82.2v5.3H61.6Zm41.6,13.5a13.69,13.69,0,0,1,14.1-14c5.1,0,8.1,1.7,10.6,4.2l-3.8,4.4c-2.1-1.9-4.2-3.1-6.9-3.1-4.6,0-7.8,3.8-7.8,8.4v.1c0,4.6,3.2,8.5,7.8,8.5,3.1,0,5-1.2,7.1-3.2l3.8,3.8a13.8,13.8,0,0,1-11.1,4.8A13.6,13.6,0,0,1,103.2-346.85Zm32.4-13.5h5.9v21.6H155v5.4H135.6Zm26.5,0h20.4v5.3H168v5.5h12.7v5.3H168v5.7h14.6v5.3H162Zm26.2,0h6.6l7.1,19,7.1-19h6.4l-10.9,27.2h-5.2l-11.1-27.2Zm34,0h20.4v5.3H228.2v5.5h12.7v5.3H228.2v5.7h14.6v5.3H222.2Zm28.5,0h5.9v21.6h13.5v5.4H250.8v-27Zm35.8-.2h5.5l11.6,27.2h-6.2l-2.5-6.1H283.6l-2.5,6.1h-6Zm6.3,15.8-3.6-8.8-3.6,8.8Zm17.6-15.6H316l12.6,16.6v-16.6h5.9v27h-5l-13.1-17.2v17.2h-5.9Zm33.2,0h10.5c8.5,0,14.3,5.8,14.3,13.4v.1c0,7.6-5.9,13.5-14.3,13.5H343.7Zm10.5,21.6a7.66,7.66,0,0,0,8.1-8.1v-.1a7.72,7.72,0,0,0-8.1-8.1h-4.6v16.3Zm-353,32.1H7.6l7.1,11.4,7.1-11.4h6.4v27H22.3v-17.6l-7.6,11.5h-.1L7-297.15v17.5H1.2v-27Zm35.3,15.4v-15.4h5.9v15.3c0,4.4,2.2,6.7,5.8,6.7s5.8-2.2,5.8-6.5v-15.5h6v15.2c0,8.2-4.6,12.2-11.8,12.2s-11.7-4-11.7-12Zm30.8,7.7,3.5-4.2a12.45,12.45,0,0,0,8.1,3.3c2.4,0,3.9-1,3.9-2.5v-.1c0-1.5-.9-2.3-5.4-3.4-5.4-1.4-8.9-2.9-8.9-8.2v-.1c0-4.9,3.9-8.1,9.4-8.1a15.51,15.51,0,0,1,10,3.4l-3.1,4.5a12.34,12.34,0,0,0-7-2.7c-2.3,0-3.5,1-3.5,2.4v.1c0,1.8,1.2,2.4,5.8,3.5,5.5,1.4,8.6,3.4,8.6,8.1v.1c0,5.4-4.1,8.4-9.9,8.4a19.24,19.24,0,0,1-11.5-4.5Zm30-23.1h20.4v5.3H103.2v5.5h12.7v5.3H103.2v5.7h14.7v5.3H97.3v-27.1Zm28.5,15.4v-15.4h5.9v15.3c0,4.4,2.2,6.7,5.8,6.7s5.8-2.2,5.8-6.5v-15.5h5.9v15.2c0,8.2-4.6,12.2-11.8,12.2s-11.6-4-11.6-12Zm32.1-15.4h6.4l7.1,11.4,7.1-11.4h6.4v27H179v-17.6l-7.6,11.5h-.1l-7.5-11.4v17.5H158l-.1-27ZM206.7-293c0-7.8,6.1-14,14.4-14s14.3,6.2,14.3,13.9v.1A14,14,0,0,1,221-279C212.7-279.25,206.7-285.45,206.7-293Zm22.5,0c0-4.7-3.4-8.6-8.2-8.6a8.07,8.07,0,0,0-8.1,8.4v.1a8.24,8.24,0,0,0,8.2,8.5A8.07,8.07,0,0,0,229.2-293Zm14-13.6h20.6v5.4H249.2v5.8H262v5.4H249.1v10.5h-5.9v-27.1Zm49.6-.2h5.5l11.6,27.2h-6.2l-2.5-6H289.8l-2.5,6h-6Zm6.2,15.9-3.6-8.8-3.6,8.8Zm17.3-15.7h12.3a11.25,11.25,0,0,1,7.9,2.7,8.46,8.46,0,0,1,2.3,6.2v.1a8.46,8.46,0,0,1-5.8,8.4l6.6,9.6h-6.9l-5.8-8.6h-4.7v8.6h-5.9v-27Zm12,13.1c2.9,0,4.5-1.5,4.5-3.8v-.1c0-2.5-1.8-3.9-4.7-3.9h-5.9v7.8Zm24.5-7.6h-8.2v-5.5H367v5.5h-8.2v21.5h-5.9v-21.5Z"/></svg>