<?xml version="1.0" encoding="utf-8"?>
<!-- Generator: Adobe Illustrator 25.0.1, SVG Export Plug-In . SVG Version: 6.00 Build 0)  -->
<svg version="1.1" id="Layer_1" xmlns="http://www.w3.org/2000/svg" xmlns:xlink="http://www.w3.org/1999/xlink" x="0px" y="0px"
	 viewBox="0 0 368.5 167.5" style="enable-background:new 0 0 368.5 167.5;" xml:space="preserve">
<style type="text/css">
	.st0{fill:#646464;}
</style>
<path class="st0" d="M200.7-557l-0.1,25.8h167.5V-557H200.7 M200.7-417.1l-0.1,25.8h167.5v-25.8H200.7 M200.7-510.3l-0.1,25.7h167.5
	v-25.7H200.7 M200.7-463.7l-0.1,25.7h167.5v-25.7H200.7 M0-520.2v128.9h25.7v-84.9h21.4v84.9h25.2v-84.9h20.9v84.9H119v-84.9h20.9
	v84.9h26.4v-128.9L83.2-559L0-520.2 M200.7,2l-0.1,25.8h167.5V2H200.7 M200.7,141.9l-0.1,25.8h167.5v-25.8H200.7 M200.7,48.7
	l-0.1,25.7h167.5V48.7L200.7,48.7 M200.7,95.2l-0.1,25.7h167.5V95.2H200.7 M0,38.8v128.9h25.7V82.8h21.4v84.9h25.2V82.8h20.9v84.9
	H119V82.8h20.9v84.9h26.4V38.8L83.2,0.1L0,38.8 M8.2-355H0v-5.5h22.4v5.5h-8.2v21.5h-6V-355z M29.6-360.4h5.9v10.7h11v-10.7h5.9v27
	h-5.9v-10.8h-11v10.8h-5.9L29.6-360.4z M61.6-360.4H82v5.3H67.5v5.5h12.7v5.3H67.5v5.7h14.7v5.3H61.6V-360.4z M103.2-346.9
	c-0.2-7.6,5.8-13.8,13.4-14c0.2,0,0.5,0,0.7,0c5.1,0,8.1,1.7,10.6,4.2l-3.8,4.4c-2.1-1.9-4.2-3.1-6.9-3.1c-4.6,0-7.8,3.8-7.8,8.4
	v0.1c0,4.6,3.2,8.5,7.8,8.5c3.1,0,5-1.2,7.1-3.2l3.8,3.8c-2.8,3.2-6.9,5-11.1,4.8c-7.5,0.1-13.7-5.9-13.8-13.4
	C103.2-346.5,103.2-346.7,103.2-346.9z M135.6-360.4h5.9v21.6H155v5.4h-19.4V-360.4z M162.1-360.4h20.4v5.3H168v5.5h12.7v5.3H168
	v5.7h14.6v5.3H162L162.1-360.4z M188.3-360.4h6.6l7.1,19l7.1-19h6.4l-10.9,27.2h-5.2L188.3-360.4L188.3-360.4z M222.3-360.4h20.4
	v5.3h-14.5v5.5h12.7v5.3h-12.7v5.7h14.6v5.3h-20.6L222.3-360.4z M250.8-360.4h5.9v21.6h13.5v5.4h-19.4V-360.4z M286.6-360.6h5.5
	l11.6,27.2h-6.2l-2.5-6.1h-11.4l-2.5,6.1h-6L286.6-360.6z M292.9-344.8l-3.6-8.8l-3.6,8.8H292.9z M310.5-360.4h5.5l12.6,16.6v-16.6
	h5.9v27h-5l-13.1-17.2v17.2h-5.9V-360.4z M343.7-360.4h10.5c8.5,0,14.3,5.8,14.3,13.4v0.1c0,7.6-5.9,13.5-14.3,13.5h-10.5V-360.4z
	 M354.2-338.8c4.2,0.3,7.8-3,8.1-7.2c0-0.3,0-0.6,0-0.9v-0.1c0.2-4.3-3.1-7.9-7.3-8.1c-0.3,0-0.5,0-0.8,0h-4.6v16.3L354.2-338.8z
	 M1.2-306.7h6.4l7.1,11.4l7.1-11.4h6.4v27h-5.9v-17.6l-7.6,11.5h-0.1L7-297.1v17.5H1.2L1.2-306.7L1.2-306.7z M36.5-291.3v-15.4h5.9
	v15.3c0,4.4,2.2,6.7,5.8,6.7s5.8-2.2,5.8-6.5v-15.5h6v15.2c0,8.2-4.6,12.2-11.8,12.2S36.5-283.2,36.5-291.3L36.5-291.3z M67.3-283.6
	l3.5-4.2c2.2,2,5.1,3.2,8.1,3.3c2.4,0,3.9-1,3.9-2.5v-0.1c0-1.5-0.9-2.3-5.4-3.4c-5.4-1.4-8.9-2.9-8.9-8.2v-0.1
	c0-4.9,3.9-8.1,9.4-8.1c3.6-0.1,7.2,1.1,10,3.4l-3.1,4.5c-2-1.6-4.4-2.5-7-2.7c-2.3,0-3.5,1-3.5,2.4v0.1c0,1.8,1.2,2.4,5.8,3.5
	c5.5,1.4,8.6,3.4,8.6,8.1v0.1c0,5.4-4.1,8.4-9.9,8.4C74.6-279.2,70.5-280.8,67.3-283.6L67.3-283.6z M97.3-306.7h20.4v5.3h-14.5v5.5
	h12.7v5.3h-12.7v5.7h14.7v5.3H97.3L97.3-306.7L97.3-306.7z M125.8-291.3v-15.4h5.9v15.3c0,4.4,2.2,6.7,5.8,6.7s5.8-2.2,5.8-6.5
	v-15.5h5.9v15.2c0,8.2-4.6,12.2-11.8,12.2S125.8-283.2,125.8-291.3L125.8-291.3z M157.9-306.7h6.4l7.1,11.4l7.1-11.4h6.4v27H179
	v-17.6l-7.6,11.5h-0.1l-7.5-11.4v17.5H158L157.9-306.7L157.9-306.7z M206.7-293c0-7.8,6.1-14,14.4-14s14.3,6.2,14.3,13.9v0.1
	c0,7.7-6.3,14-14,14c-0.1,0-0.3,0-0.4,0C212.7-279.2,206.7-285.5,206.7-293z M229.2-293c0-4.7-3.4-8.6-8.2-8.6c-4.5,0-8.1,3.6-8.1,8
	c0,0.1,0,0.2,0,0.4v0.1c-0.1,4.5,3.4,8.4,8,8.5c0.1,0,0.1,0,0.2,0c4.5,0,8.1-3.6,8.1-8C229.2-292.8,229.2-292.9,229.2-293z
	 M243.2-306.6h20.6v5.4h-14.6v5.8H262v5.4h-12.9v10.5h-5.9L243.2-306.6L243.2-306.6z M292.8-306.8h5.5l11.6,27.2h-6.2l-2.5-6h-11.4
	l-2.5,6h-6L292.8-306.8z M299-290.9l-3.6-8.8l-3.6,8.8H299z M316.3-306.6h12.3c2.9-0.1,5.7,0.8,7.9,2.7c1.6,1.7,2.4,3.9,2.3,6.2v0.1
	c0.2,3.8-2.2,7.2-5.8,8.4l6.6,9.6h-6.9l-5.8-8.6h-4.7v8.6h-5.9V-306.6L316.3-306.6z M328.3-293.5c2.9,0,4.5-1.5,4.5-3.8v-0.1
	c0-2.5-1.8-3.9-4.7-3.9h-5.9v7.8H328.3z M352.8-301.1h-8.2v-5.5H367v5.5h-8.2v21.5h-5.9v-21.5H352.8z"/>
</svg>
